<svg width="200" height="200" viewBox="0 0 200 200" fill="none" xmlns="http://www.w3.org/2000/svg">
<circle cx="100" cy="100" r="100" fill="#2596BE"/>
<path d="M64 47.5V73C91.0993 55.0319 106.885 55.4151 136 73C136 73 136.08 60.7375 136 47.5C135.654 37.3799 133.522 30.1646 119 30C105.01 30.4426 81 30 81 30C66.4782 30.1646 64.3463 37.3799 64 47.5Z" fill="#142B34" stroke="#142B34"/>
<path d="M89.7083 46C81.8424 46.1693 80.6876 53.5908 80.5 64H119.5C119.312 53.5908 118.158 46.1693 110.292 46C102.714 46.4552 89.7083 46 89.7083 46Z" fill="#2596BE" stroke="#142B34"/>
<circle cx="100" cy="115" r="56" fill="#142B34"/>
<path d="M138.829 115.008C138.829 109.801 132.456 104.866 122.684 101.806C124.939 91.6159 123.936 83.5088 119.52 80.9133C118.502 80.3044 117.312 80.016 116.012 80.016V83.5729V83.5889C116.733 83.5889 117.312 83.7331 117.798 84.0055C119.927 85.2552 120.851 90.0137 120.131 96.1341C119.959 97.6402 119.677 99.2264 119.332 100.845C116.263 100.076 112.912 99.4827 109.388 99.0982C107.274 96.1341 105.081 93.4424 102.873 91.0872C107.97 86.2403 112.755 83.5814 116.012 83.5729C116.017 83.5729 116.023 83.5729 116.028 83.5729V80C111.721 80 106.084 83.1403 100.383 88.5878C94.683 83.1724 89.0453 80.0641 84.7387 80.0641V83.637C87.9804 83.637 92.7881 86.2806 97.8933 91.1032C95.7009 93.4585 93.5085 96.1341 91.4256 99.0982C87.8864 99.4827 84.5351 100.076 81.4657 100.861C81.1055 99.2584 80.8393 97.7043 80.6514 96.2142C79.9153 90.0938 80.8236 85.3353 82.9378 84.0696C83.4076 83.7812 84.0183 83.653 84.7387 83.653V80.0801C83.4232 80.0801 82.2331 80.3685 81.1995 80.9773C76.799 83.5729 75.8124 91.664 78.0831 101.822C68.3424 104.898 62 109.817 62 115.008C62 120.215 68.3737 125.15 78.1457 128.21C75.8907 138.4 76.8929 146.507 81.3091 149.103C82.327 149.712 83.5172 150 84.8327 150C89.1392 150 94.7769 146.86 100.477 141.412C106.178 146.828 111.815 149.936 116.122 149.936C117.437 149.936 118.628 149.648 119.661 149.039C124.062 146.443 125.048 138.352 122.777 128.194C132.487 125.134 138.829 120.199 138.829 115.008ZM118.44 104.321C117.86 106.388 117.14 108.519 116.325 110.65C115.683 109.368 115.01 108.087 114.274 106.805C113.554 105.523 112.786 104.273 112.019 103.056C114.243 103.392 116.388 103.809 118.44 104.321ZM111.267 121.385C110.046 123.548 108.793 125.599 107.493 127.505C105.16 127.713 102.795 127.826 100.415 127.826C98.0499 127.826 95.6852 127.713 93.3675 127.521C92.0677 125.615 90.7992 123.58 89.5777 121.433C88.3875 119.334 87.307 117.203 86.3204 115.056C87.2913 112.909 88.3876 110.762 89.5621 108.663C90.7836 106.5 92.0364 104.45 93.3362 102.543C95.6696 102.335 98.0343 102.222 100.415 102.222C102.779 102.222 105.144 102.335 107.462 102.527C108.762 104.434 110.03 106.468 111.252 108.615C112.442 110.714 113.522 112.845 114.509 114.992C113.522 117.139 112.442 119.286 111.267 121.385ZM116.325 119.302C117.171 121.449 117.892 123.596 118.487 125.679C116.435 126.191 114.274 126.624 112.035 126.96C112.802 125.727 113.569 124.461 114.29 123.163C115.01 121.881 115.683 120.584 116.325 119.302ZM100.446 136.397C98.9896 134.859 97.5331 133.145 96.0924 131.27C97.5018 131.334 98.9426 131.382 100.399 131.382C101.871 131.382 103.327 131.35 104.753 131.27C103.343 133.145 101.887 134.859 100.446 136.397ZM88.7947 126.96C86.571 126.624 84.4255 126.207 82.374 125.695C82.9534 123.628 83.6738 121.497 84.4881 119.366C85.1302 120.648 85.8036 121.93 86.5396 123.211C87.2757 124.493 88.0274 125.743 88.7947 126.96ZM100.368 93.6187C101.824 95.1568 103.28 96.8711 104.721 98.7457C103.312 98.6816 101.871 98.6336 100.415 98.6336C98.9426 98.6336 97.4862 98.6656 96.0611 98.7457C97.4705 96.8711 98.9269 95.1568 100.368 93.6187ZM88.7791 103.056C88.0117 104.289 87.2444 105.555 86.524 106.853C85.8036 108.135 85.1302 109.416 84.4881 110.698C83.6425 108.551 82.9221 106.404 82.327 104.321C84.3785 103.825 86.5396 103.392 88.7791 103.056ZM74.6065 123.115C69.0628 120.696 65.4766 117.523 65.4766 115.008C65.4766 112.493 69.0628 109.304 74.6065 106.901C75.9533 106.308 77.4254 105.779 78.9444 105.283C79.837 108.423 81.0116 111.691 82.468 115.04C81.0272 118.373 79.8684 121.625 78.9914 124.749C77.441 124.253 75.969 123.708 74.6065 123.115ZM83.0317 146.011C80.9019 144.761 79.978 140.002 80.6984 133.882C80.8706 132.376 81.1525 130.79 81.497 129.171C84.5664 129.94 87.9177 130.533 91.4413 130.918C93.5554 133.882 95.7479 136.574 97.956 138.929C92.8507 143.783 88.0587 146.443 84.8013 146.443C84.0966 146.427 83.5015 146.283 83.0317 146.011ZM120.178 133.802C120.914 139.922 120.006 144.681 117.891 145.946C117.422 146.235 116.811 146.363 116.091 146.363C112.849 146.363 108.041 143.719 102.936 138.897C105.128 136.542 107.321 133.866 109.404 130.902C112.943 130.517 116.294 129.924 119.364 129.139C119.724 130.758 120.006 132.312 120.178 133.802ZM126.207 123.115C124.86 123.708 123.388 124.237 121.869 124.733C120.977 121.593 119.802 118.325 118.346 114.976C119.786 111.643 120.945 108.391 121.822 105.267C123.373 105.763 124.845 106.308 126.223 106.901C131.766 109.32 135.353 112.493 135.353 115.008C135.337 117.523 131.751 120.712 126.207 123.115Z" fill="white"/>
<path d="M97.8933 91.1032C92.7881 86.2806 87.9804 83.637 84.7387 83.637V83.653C84.0183 83.653 83.4076 83.7812 82.9378 84.0696C80.8236 85.3353 79.9153 90.0938 80.6514 96.2142C80.8393 97.7043 81.1055 99.2584 81.4657 100.861C84.5351 100.076 87.8864 99.4827 91.4256 99.0982C93.5085 96.1341 95.7009 93.4585 97.8933 91.1032Z" fill="white"/>
<path d="M116.012 83.5889V83.5729C112.755 83.5814 107.97 86.2403 102.873 91.0872C105.081 93.4424 107.274 96.1341 109.388 99.0982C112.912 99.4827 116.263 100.076 119.332 100.845C119.677 99.2264 119.959 97.6402 120.131 96.1341C120.851 90.0137 119.927 85.2552 117.798 84.0055C117.312 83.7331 116.733 83.5889 116.012 83.5889Z" fill="white"/>
<path d="M111.267 121.385C110.046 123.548 108.793 125.599 107.493 127.505C105.16 127.713 102.795 127.826 100.415 127.826C98.0499 127.826 95.6852 127.713 93.3675 127.521C92.0677 125.615 90.7992 123.58 89.5777 121.433C88.3875 119.334 87.307 117.203 86.3204 115.056C87.2913 112.909 88.3876 110.762 89.5621 108.663C90.7836 106.5 92.0364 104.45 93.3362 102.543C95.6696 102.335 98.0343 102.222 100.415 102.222C102.779 102.222 105.144 102.335 107.462 102.527C108.762 104.434 110.03 106.468 111.252 108.615C112.442 110.714 113.522 112.845 114.509 114.992C113.522 117.139 112.442 119.286 111.267 121.385Z" fill="white"/>
<path d="M100.368 93.6187C101.824 95.1568 103.28 96.8711 104.721 98.7457C103.312 98.6816 101.871 98.6336 100.415 98.6336C98.9426 98.6336 97.4862 98.6656 96.0611 98.7457C97.4705 96.8711 98.9269 95.1568 100.368 93.6187Z" fill="white"/>
<path d="M88.7791 103.056C88.0117 104.289 87.2444 105.555 86.524 106.853C85.8036 108.135 85.1302 109.416 84.4881 110.698C83.6425 108.551 82.9221 106.404 82.327 104.321C84.3785 103.825 86.5396 103.392 88.7791 103.056Z" fill="white"/>
<path d="M74.6065 123.115C69.0628 120.696 65.4766 117.523 65.4766 115.008C65.4766 112.493 69.0628 109.304 74.6065 106.901C75.9533 106.308 77.4254 105.779 78.9444 105.283C79.837 108.423 81.0116 111.691 82.468 115.04C81.0272 118.373 79.8684 121.625 78.9914 124.749C77.441 124.253 75.969 123.708 74.6065 123.115Z" fill="white"/>
<path d="M83.0317 146.011C80.9019 144.761 79.978 140.002 80.6984 133.882C80.8706 132.376 81.1525 130.79 81.497 129.171C84.5664 129.94 87.9177 130.533 91.4413 130.918C93.5554 133.882 95.7479 136.574 97.956 138.929C92.8507 143.783 88.0587 146.443 84.8013 146.443C84.0966 146.427 83.5015 146.283 83.0317 146.011Z" fill="white"/>
<path d="M88.7947 126.96C86.571 126.624 84.4255 126.207 82.374 125.695C82.9534 123.628 83.6738 121.497 84.4881 119.366C85.1302 120.648 85.8036 121.93 86.5396 123.211C87.2757 124.493 88.0274 125.743 88.7947 126.96Z" fill="white"/>
<path d="M100.446 136.397C98.9896 134.859 97.5331 133.145 96.0924 131.27C97.5018 131.334 98.9426 131.382 100.399 131.382C101.871 131.382 103.327 131.35 104.753 131.27C103.343 133.145 101.887 134.859 100.446 136.397Z" fill="white"/>
<path d="M120.178 133.802C120.914 139.922 120.006 144.681 117.891 145.946C117.422 146.235 116.811 146.363 116.091 146.363C112.849 146.363 108.041 143.719 102.936 138.897C105.128 136.542 107.321 133.866 109.404 130.902C112.943 130.517 116.294 129.924 119.364 129.139C119.724 130.758 120.006 132.312 120.178 133.802Z" fill="white"/>
<path d="M126.207 123.115C124.86 123.708 123.388 124.237 121.869 124.733C120.977 121.593 119.802 118.325 118.346 114.976C119.786 111.643 120.945 108.391 121.822 105.267C123.373 105.763 124.845 106.308 126.223 106.901C131.766 109.32 135.353 112.493 135.353 115.008C135.337 117.523 131.751 120.712 126.207 123.115Z" fill="white"/>
<path d="M118.44 104.321C117.86 106.388 117.14 108.519 116.325 110.65C115.683 109.368 115.01 108.087 114.274 106.805C113.554 105.523 112.786 104.273 112.019 103.056C114.243 103.392 116.388 103.809 118.44 104.321Z" fill="white"/>
<path d="M116.325 119.302C117.171 121.449 117.892 123.596 118.487 125.679C116.435 126.191 114.274 126.624 112.035 126.96C112.802 125.727 113.569 124.461 114.29 123.163C115.01 121.881 115.683 120.584 116.325 119.302Z" fill="white"/>
<path d="M100.399 122.33C104.352 122.33 107.556 119.052 107.556 115.008C107.556 110.964 104.352 107.686 100.399 107.686C96.4465 107.686 93.2423 110.964 93.2423 115.008C93.2423 119.052 96.4465 122.33 100.399 122.33Z" fill="white"/>
<path d="M134.561 115.007C134.561 110.435 128.895 106.102 120.209 103.415C122.214 94.4677 121.323 87.3492 117.397 85.0702C116.492 84.5356 115.435 84.2824 114.279 84.2824V87.4196C114.92 87.4196 115.435 87.5462 115.866 87.7853C117.759 88.8826 118.581 93.0609 117.94 98.4349C117.787 99.7573 117.537 101.15 117.23 102.571C114.502 101.896 111.523 101.375 108.391 101.037C106.512 98.4349 104.563 96.0714 102.6 94.0034C107.138 89.7408 111.398 87.4055 114.293 87.4055V84.2683C110.465 84.2683 105.454 87.0257 100.387 91.8088C95.3198 87.0538 90.3085 84.3246 86.4805 84.3246V87.4618C89.362 87.4618 93.6355 89.783 98.1735 94.0175C96.2246 96.0855 94.2758 98.4349 92.4244 101.037C89.2784 101.375 86.2995 101.896 83.5711 102.585C83.251 101.178 83.0143 99.8135 82.8473 98.5052C82.193 93.1312 83.0004 88.953 84.8796 87.8416C85.2972 87.5884 85.8401 87.4758 86.4805 87.4758V84.3387C85.3112 84.3387 84.2532 84.5919 83.3345 85.1265C79.4229 87.4055 78.5459 94.5099 80.5644 103.429C71.906 106.13 66.2683 110.449 66.2683 115.007C66.2683 119.579 71.9338 123.912 80.62 126.599C78.6155 135.546 79.5064 142.665 83.4319 144.944C84.3368 145.478 85.3947 145.732 86.564 145.732C90.3921 145.732 95.4033 142.974 100.47 138.191C105.537 142.946 110.549 145.675 114.377 145.675C115.546 145.675 116.604 145.422 117.523 144.888C121.434 142.609 122.311 135.504 120.293 126.585C128.923 123.898 134.561 119.565 134.561 115.007ZM116.437 105.624C115.922 107.438 115.281 109.309 114.558 111.181C113.987 110.055 113.388 108.93 112.734 107.804C112.094 106.679 111.412 105.581 110.73 104.512C112.706 104.808 114.613 105.173 116.437 105.624ZM110.061 120.606C108.976 122.505 107.862 124.306 106.707 125.98C104.632 126.163 102.531 126.262 100.415 126.262C98.3127 126.262 96.2107 126.163 94.1505 125.994C92.9951 124.32 91.8676 122.533 90.7818 120.648C89.7239 118.805 88.7634 116.934 87.8864 115.049C88.7495 113.164 89.7239 111.279 90.7679 109.436C91.8537 107.537 92.9673 105.736 94.1227 104.062C96.1968 103.879 98.2987 103.781 100.415 103.781C102.517 103.781 104.619 103.879 106.679 104.048C107.834 105.722 108.962 107.509 110.047 109.394C111.105 111.237 112.066 113.108 112.943 114.993C112.066 116.878 111.105 118.763 110.061 120.606ZM114.558 118.777C115.309 120.662 115.95 122.548 116.479 124.376C114.655 124.827 112.734 125.206 110.743 125.502C111.426 124.419 112.108 123.307 112.748 122.168C113.388 121.042 113.987 119.903 114.558 118.777ZM100.442 133.788C99.1479 132.437 97.8533 130.932 96.5726 129.286C97.8255 129.342 99.1061 129.385 100.401 129.385C101.709 129.385 103.004 129.356 104.271 129.286C103.018 130.932 101.723 132.437 100.442 133.788ZM90.0858 125.502C88.1091 125.206 86.2021 124.841 84.3785 124.39C84.8936 122.576 85.5339 120.705 86.2577 118.834C86.8285 119.959 87.427 121.084 88.0813 122.21C88.7355 123.335 89.4037 124.433 90.0858 125.502ZM100.373 96.2262C101.667 97.5767 102.962 99.082 104.243 100.728C102.99 100.672 101.709 100.629 100.415 100.629C99.1061 100.629 97.8115 100.658 96.5448 100.728C97.7976 99.082 99.0922 97.5767 100.373 96.2262ZM90.0719 104.512C89.3898 105.596 88.7077 106.707 88.0674 107.846C87.427 108.972 86.8285 110.097 86.2577 111.223C85.506 109.338 84.8657 107.452 84.3368 105.624C86.1603 105.188 88.0813 104.808 90.0719 104.512ZM77.4741 122.125C72.5463 120.001 69.3586 117.216 69.3586 115.007C69.3586 112.798 72.5463 109.999 77.4741 107.889C78.6712 107.368 79.9797 106.904 81.33 106.468C82.1234 109.225 83.1674 112.095 84.462 115.035C83.1814 117.961 82.1513 120.817 81.3717 123.56C79.9936 123.124 78.6851 122.646 77.4741 122.125ZM84.9632 142.229C83.07 141.131 82.2487 136.953 82.889 131.579C83.0422 130.257 83.2927 128.864 83.599 127.443C86.3273 128.118 89.3063 128.639 92.4383 128.977C94.3176 131.579 96.2664 133.943 98.2291 136.011C93.6911 140.273 89.4316 142.609 86.5361 142.609C85.9097 142.595 85.3808 142.468 84.9632 142.229ZM117.982 131.509C118.636 136.883 117.829 141.061 115.95 142.173C115.532 142.426 114.989 142.538 114.349 142.538C111.467 142.538 107.194 140.217 102.656 135.983C104.605 133.915 106.553 131.565 108.405 128.963C111.551 128.625 114.53 128.104 117.258 127.415C117.578 128.836 117.829 130.201 117.982 131.509ZM123.341 122.125C122.144 122.646 120.836 123.11 119.485 123.546C118.692 120.789 117.648 117.919 116.353 114.979C117.634 112.053 118.664 109.197 119.444 106.454C120.822 106.89 122.13 107.368 123.355 107.889C128.283 110.013 131.471 112.798 131.471 115.007C131.457 117.216 128.269 120.015 123.341 122.125Z" fill="#61DAFB"/>
<path d="M100.401 121.436C103.914 121.436 106.762 118.558 106.762 115.007C106.762 111.456 103.914 108.578 100.401 108.578C96.8873 108.578 94.0392 111.456 94.0392 115.007C94.0392 118.558 96.8873 121.436 100.401 121.436Z" fill="#61DAFB"/>
</svg>
